HIERARCHY
ROOT Hips
{
	OFFSET -0.001795 -0.223333 0.028219
	CHANNELS 6 Xposition Yposition Zposition Zrotation Yrotation Xrotation 
	JOINT LeftUpLeg
	{
		OFFSET 0.069520 -0.091406 -0.006815
		CHANNELS 3 Zrotation Yrotation Xrotation
		JOINT LeftLeg
		{
			OFFSET 0.034277 -0.375199 -0.004496
			CHANNELS 3 Zrotation Yrotation Xrotation
			JOINT LeftFoot
			{
				OFFSET -0.013596 -0.397961 -0.043693
				CHANNELS 3 Zrotation Yrotation Xrotation
				JOINT LeftToe
				{
					OFFSET 0.026358 -0.055791 0.119288
					CHANNELS 3 Zrotation Yrotation Xrotation
					End Site
					{
						OFFSET 0.000000 0.000000 0.000000
					}
				}
			}
		}
	}
	JOINT RightUpLeg
	{
		OFFSET -0.067670 -0.090522 -0.004320
		CHANNELS 3 Zrotation Yrotation Xrotation
		JOINT RightLeg
		{
			OFFSET -0.038290 -0.382569 -0.008850
			CHANNELS 3 Zrotation Yrotation Xrotation
			JOINT RightFoot
			{
				OFFSET 0.015774 -0.398415 -0.042312
				CHANNELS 3 Zrotation Yrotation Xrotation
				JOINT RightToe
				{
					OFFSET -0.025372 -0.048144 0.123348
					CHANNELS 3 Zrotation Yrotation Xrotation
					End Site
					{
						OFFSET 0.000000 0.000000 0.000000
					}
				}
			}
		}
	}
	JOINT Spine
	{
		OFFSET -0.002533 0.108963 -0.026696
		CHANNELS 3 Zrotation Yrotation Xrotation
		JOINT Spine1
		{
			OFFSET 0.005487 0.135180 0.001092
			CHANNELS 3 Zrotation Yrotation Xrotation
			JOINT Spine2
			{
				OFFSET 0.001457 0.052922 0.025425
				CHANNELS 3 Zrotation Yrotation Xrotation
				JOINT Neck
				{
					OFFSET -0.002778 0.213870 -0.042857
					CHANNELS 3 Zrotation Yrotation Xrotation
					JOINT Head
					{
						OFFSET 0.005152 0.064970 0.051349
						CHANNELS 3 Zrotation Yrotation Xrotation
						End Site
						{
							OFFSET 0.000000 0.000000 0.000000
						}
					}
				}
				JOINT LeftShoulder
				{
					OFFSET 0.078845 0.121749 -0.034090
					CHANNELS 3 Zrotation Yrotation Xrotation
					JOINT LeftArm
					{
						OFFSET 0.090977 0.030469 -0.008868
						CHANNELS 3 Zrotation Yrotation Xrotation
						JOINT LeftForeArm
						{
							OFFSET 0.259612 -0.012772 -0.027456
							CHANNELS 3 Zrotation Yrotation Xrotation
							JOINT LeftHand
							{
								OFFSET 0.249234 0.008986 -0.001171
								CHANNELS 3 Zrotation Yrotation Xrotation
								End Site
								{
									OFFSET 0.000000 0.000000 0.000000
								}
							}
						}
					}
				}
				JOINT RightShoulder
				{
					OFFSET -0.081759 0.118833 -0.038615
					CHANNELS 3 Zrotation Yrotation Xrotation
					JOINT RightArm
					{
						OFFSET -0.096012 0.032551 -0.009143
						CHANNELS 3 Zrotation Yrotation Xrotation
						JOINT RightForeArm
						{
							OFFSET -0.253742 -0.013329 -0.021401
							CHANNELS 3 Zrotation Yrotation Xrotation
							JOINT RightHand
							{
								OFFSET -0.255298 0.007772 -0.005559
								CHANNELS 3 Zrotation Yrotation Xrotation
								End Site
								{
									OFFSET 0.000000 0.000000 0.000000
								}
							}
						}
					}
				}
			}
		}
	}
}
MOTION
Frames: 7
Frame Time: 0.050000
0.000000 0.937796 0.000000 -2.658723 -42.594688 3.339526 -0.283754 0.244547 -23.795765 -1.833161 1.037550 9.897922 7.446568 10.910904 18.804708 0.000000 0.000000 0.000000 -6.534127 0.946733 -0.889709 8.073204 2.036314 26.221556 -4.451195 -9.736190 1.622574 0.000000 0.000000 0.000000 6.658737 -0.638614 10.869066 0.259231 -0.028451 -25.231248 1.241186 29.112753 26.132568 14.478515 -5.744382 -29.168843 0.000000 0.000000 0.000000 -12.415380 -4.943598 1.872110 -48.183315 -36.519281 6.541067 173.192038 -27.898607 -131.064555 0.000000 0.000000 0.000000 14.297761 6.622851 2.461908 84.108772 49.489204 32.400048 167.557814 45.867722 168.004858 0.000000 0.000000 0.000000 
-0.021689 0.935181 0.028689 -3.812559 -39.009595 3.605043 1.418139 0.213430 -21.097329 -3.028199 1.113843 8.043292 5.585229 8.733637 17.595031 0.000000 0.000000 0.000000 -6.379651 0.842806 -0.726414 11.088280 1.252581 26.825408 -5.017038 -12.283973 3.760746 0.000000 0.000000 0.000000 7.373339 -0.680193 8.992206 1.490185 -0.161373 -25.844101 2.480583 31.642506 27.058420 17.255077 -7.324325 -26.606546 0.000000 0.000000 0.000000 -11.775654 -6.243658 1.649655 -45.748901 -38.449935 6.672267 169.905512 -27.009764 -122.635245 0.000000 0.000000 0.000000 14.171405 5.789549 2.897903 79.247287 54.877555 35.450223 171.210153 49.123712 179.992478 0.000000 0.000000 0.000000 
-0.040112 0.938811 0.055279 -2.756452 -33.152969 3.127527 0.014774 -0.580375 -18.681938 -3.886213 1.222785 8.331220 6.964415 12.207162 12.573638 0.000000 0.000000 0.000000 -6.701649 0.804955 -2.401583 11.100024 0.644998 26.093621 -7.638822 -15.779162 -0.242189 0.000000 0.000000 0.000000 7.684966 -0.686070 7.909242 -0.389448 0.368208 -26.396299 3.753383 26.359945 27.863488 15.165930 -5.991990 -27.934968 0.000000 0.000000 0.000000 -13.471703 -4.825766 1.100012 -44.419233 -38.179281 6.341912 166.143265 -23.443225 -101.944318 0.000000 0.000000 0.000000 7.278320 8.265758 3.331203 77.352126 59.293888 38.442433 -178.704197 47.189299 -158.223957 0.000000 0.000000 0.000000 
-0.054293 0.942316 0.079142 -2.847261 -28.294875 4.177076 -0.772191 -0.922006 -18.376690 -4.002699 1.083560 7.824288 2.577420 5.488284 11.544086 0.000000 0.000000 0.000000 -6.390785 0.761873 -3.811281 11.966889 -0.003590 25.452968 -10.169901 -21.796909 1.414032 0.000000 0.000000 0.000000 8.341418 -0.774711 7.764954 0.985524 0.401817 -28.589862 1.741031 27.768522 28.694876 16.188472 -5.683922 -29.184505 0.000000 0.000000 0.000000 -10.101785 -3.477733 -0.052984 -44.983472 -43.242461 8.160525 164.224541 -23.573449 -99.487582 0.000000 0.000000 0.000000 7.891535 7.745227 3.679109 74.602953 66.495377 44.465590 -168.136780 46.337004 -131.249666 0.000000 0.000000 0.000000 
-0.064722 0.947831 0.099645 -2.539945 -22.791879 3.297533 -1.221155 -1.130535 -15.534471 -4.764918 1.099070 7.213463 2.198433 5.350664 9.909274 0.000000 0.000000 0.000000 -5.422372 0.748917 -6.231052 9.670726 0.225434 28.105310 -9.592038 -22.277900 5.632996 0.000000 0.000000 0.000000 8.172244 -0.761946 7.275859 1.486902 0.302583 -28.192765 1.620523 27.911060 28.991153 16.639697 -5.332047 -29.041249 0.000000 0.000000 0.000000 -7.377387 -5.583367 0.595284 -42.398366 -43.837766 7.356485 160.669838 -20.028022 -83.271186 0.000000 0.000000 0.000000 4.510054 6.661928 3.047621 79.925239 72.746274 57.287040 -155.740027 42.666826 -99.949243 0.000000 0.000000 0.000000 
-0.071529 0.954074 0.116675 -1.854046 -17.120942 2.468698 -2.755620 -1.339233 -13.471237 -3.299539 0.605622 6.312047 0.298919 2.706060 10.288259 0.000000 0.000000 0.000000 -5.635646 0.756993 -7.376138 11.527258 -0.864162 30.200907 -10.521184 -24.386180 7.372149 0.000000 0.000000 0.000000 7.443844 -0.784211 7.608370 -0.227540 0.662050 -28.235413 1.939732 24.783777 28.276967 16.458153 -4.977737 -29.687356 0.000000 0.000000 0.000000 -6.144872 -4.007616 0.059648 -42.260747 -46.562806 8.113580 157.712102 -19.940235 -76.646231 0.000000 0.000000 0.000000 0.593496 8.060782 2.937266 76.740010 78.552239 61.610130 -144.964722 36.242323 -71.617776 0.000000 0.000000 0.000000 
-0.076096 0.958601 0.130724 -1.694164 -10.354763 2.505206 -3.907503 -1.400015 -12.052001 -1.357966 0.121067 5.558280 -3.281540 -2.712557 10.372537 0.000000 0.000000 0.000000 -5.943858 0.747803 -8.634738 11.811249 -1.864502 30.565248 -11.833341 -27.059169 4.952037 0.000000 0.000000 0.000000 7.330514 -0.804162 7.240994 0.078119 0.602090 -27.635994 0.372709 24.295990 27.790247 17.813781 -4.739394 -31.317726 0.000000 0.000000 0.000000 -2.522818 -5.959061 1.129039 -41.268387 -47.159835 7.189840 153.914951 -16.821287 -62.929025 0.000000 0.000000 0.000000 -0.490548 6.841547 2.364839 64.138878 83.904396 57.390360 -137.590439 27.999052 -45.827494 0.000000 0.000000 0.000000 
